<svg width="836" height="225" xmlns="http://www.w3.org/2000/svg"><path d="M 476,43 L 476,182 L 531,182 L 531,73 L 532,72 L 614,72 L 615,73 L 615,116 L 614,117 L 551,117 L 551,119 L 601,169 L 602,169 L 624,191 L 688,191 L 688,189 L 654,155 L 653,155 L 616,118 L 617,117 L 670,117 L 670,65 L 669,64 L 669,61 L 668,60 L 668,58 L 667,57 L 667,56 L 665,54 L 665,53 L 660,48 L 659,48 L 657,46 L 656,46 L 655,45 L 653,45 L 652,44 L 650,44 L 649,43 Z" fill="#f15922" stroke="none"/><path d="M 712,43 L 712,182 L 767,182 L 767,43 Z" fill="#0066a6" stroke="none"/><path d="M 264,43 L 264,72 L 327,72 L 328,73 L 328,182 L 383,182 L 383,73 L 384,72 L 448,72 L 448,43 Z" fill="#0066a6" stroke="none"/><path d="M 51,43 L 51,162 L 52,163 L 52,165 L 53,166 L 53,167 L 54,168 L 54,169 L 56,171 L 56,172 L 60,176 L 61,176 L 63,178 L 64,178 L 65,179 L 66,179 L 67,180 L 69,180 L 70,181 L 75,181 L 76,182 L 231,182 L 231,152 L 107,152 L 106,151 L 106,128 L 107,127 L 231,127 L 231,98 L 107,98 L 106,97 L 106,73 L 107,72 L 231,72 L 231,43 Z" fill="#0066a6" stroke="none"/></svg>